<?xml version="1.0" encoding="utf-8"?>
<!-- Generator: Adobe Illustrator 18.1.1, SVG Export Plug-In . SVG Version: 6.00 Build 0)  -->
<!DOCTYPE svg PUBLIC "-//W3C//DTD SVG 1.1//EN" "http://www.w3.org/Graphics/SVG/1.1/DTD/svg11.dtd">
<svg version="1.1" id="Lager_1" xmlns="http://www.w3.org/2000/svg" xmlns:xlink="http://www.w3.org/1999/xlink" x="0px" y="0px"
	 viewBox="0 0 307 60" enable-background="new 0 0 307 60" xml:space="preserve">
<g>
	<g>
		<path fill="#0E0E0E" d="M30,0C13.4,0,0,13.4,0,30s13.4,30,30,30s30-13.4,30-30S46.6,0,30,0z M30,57.7C14.7,57.7,2.3,45.3,2.3,30
			S14.7,2.3,30,2.3S57.7,14.7,57.7,30S45.3,57.7,30,57.7z"/>
		<path fill="#0E0E0E" d="M30.3,19c4.1-3.5,5.7-6.3,6.2-9.1c0.3-2.8,0.1-7-4.4-0.5C29.5,13.3,30.3,19,30.3,19L30.3,19z"/>
		<path fill="#F8F7F7" d="M30.8,23C30.8,23,30.8,23,30.8,23C30.8,23,30.8,23,30.8,23z"/>
		<path fill="#0E0E0E" d="M32,31.2l1.6,11.5C39.2,41.9,39.4,30.1,32,31.2z"/>
		<path fill="#0E0E0E" d="M29.2,39.4c-7-3.9-2.5-10.5,1.2-11.3c0.1,0-0.6-4.4-0.6-4.4c-2.7,1.9-6.1,5.7-6.5,8.8
			c-1.8,11.5,9.2,10.3,9.2,10.3l-1.6-11.4C24.7,34,29.2,39.4,29.2,39.4z"/>
		<path fill="#0E0E0E" d="M37.5,5.7c0.4,0.8,0.7,2.1,0.7,4.5c0.1,5-4.1,10.1-7.3,12.8l0.7,4.9c3.2-0.4,7.6,1.4,8.2,5.8
			c0.9,6.8-2.9,10.1-5.9,10.5c0,0,0,0,0,0c0.8,5.5,0.3,9.4-2.3,11.2C44.8,54.6,55.4,43.6,55.4,30C55.4,18.6,47.9,8.9,37.5,5.7z"/>
		<path fill="#0E0E0E" d="M23.2,51.7c0.5-2.4,3.9-3.6,5.9-2.1c2,1.5,0.6,4.9-1.4,5.1c-0.4,0.1-0.7,0.2-0.7,0.5
			c0.8,0.1,1.5,0.1,2.3,0.2c0.4-0.1,0.8-0.3,1.2-0.5c4-2.2,2.1-10.6,2.1-10.6s-4.8,1.1-9.2-2.7c-6.7-6.4-2.5-16.1,4.5-20.8
			c0.4-0.3,0.8-0.7,1.2-1l0,0c-0.2-1.4-0.7-5.8-0.1-8.6c0.4-1.7,2.2-4.7,3.8-6.4c-1-0.1-2-0.2-3-0.2C16,4.6,4.6,16,4.6,30
			c0,11.8,8,21.7,18.9,24.6C23.1,53.7,23,52.6,23.2,51.7z"/>
		<path d="M30.8,23C30.8,23,30.8,23,30.8,23l0-0.1C30.8,22.9,30.8,23,30.8,23z"/>
	</g>
	<g>
		<path fill="#0E0E0E" d="M76.9,31.8V45H73V13.3h8.2c1.4,0,2.6,0,3.5,0.2c1,0.1,1.9,0.3,2.7,0.5c2.2,0.6,3.9,1.6,5.1,3.1
			c1.2,1.4,1.8,3.3,1.8,5.4c0,1.3-0.2,2.4-0.6,3.4c-0.4,1-1,1.9-1.7,2.6c-0.7,0.7-1.6,1.4-2.7,1.8c-1,0.5-2.2,0.8-3.5,1v0.1L95.2,45
			h-3.9l-9.8-13.1L76.9,31.8L76.9,31.8z M76.9,16.7v11.6h3.8c1.2,0,2.2,0,3-0.1c0.8-0.1,1.6-0.2,2.3-0.4c1.3-0.4,2.4-1.1,3.1-2
			c0.7-0.9,1.1-2.1,1.1-3.5c0-1.4-0.4-2.5-1-3.3c-0.7-0.8-1.6-1.4-2.8-1.8c-0.6-0.2-1.2-0.3-2-0.4s-1.8-0.1-3-0.1
			C81.3,16.7,76.9,16.7,76.9,16.7z"/>
		<path fill="#0E0E0E" d="M110.1,42.4c1.2,0,2.3-0.1,3.3-0.3c1-0.2,2-0.5,3-0.8v3.1c-0.8,0.4-1.8,0.7-3,0.9
			c-1.2,0.2-2.5,0.3-3.8,0.3c-1.6,0-3.1-0.2-4.5-0.6c-1.4-0.4-2.6-1.1-3.7-2c-1-0.9-1.8-2.1-2.4-3.6c-0.6-1.5-0.9-3.3-0.9-5.3
			c0-2.1,0.3-3.8,0.8-5.3c0.6-1.5,1.3-2.8,2.3-3.8c0.9-1,2-1.8,3.3-2.3s2.5-0.8,3.9-0.8c1.3,0,2.4,0.2,3.5,0.6
			c1.1,0.4,2.1,1.1,2.9,2s1.4,2.1,1.9,3.5c0.5,1.4,0.7,3.1,0.7,5.1c0,0.2,0,0.4,0,0.5s0,0.4,0,0.9h-15.6c0,1.4,0.2,2.7,0.6,3.7
			c0.4,1,1,1.8,1.8,2.4c0.8,0.6,1.6,1.1,2.6,1.4C107.8,42.2,108.9,42.4,110.1,42.4z M108.1,25c-0.8,0-1.6,0.2-2.4,0.5
			c-0.7,0.3-1.4,0.8-1.9,1.4c-0.5,0.6-1,1.2-1.3,2c-0.3,0.8-0.5,1.6-0.6,2.5h11.5c0-0.9-0.1-1.7-0.4-2.5s-0.6-1.4-1-2
			c-0.4-0.6-1-1-1.7-1.3C109.7,25.2,109,25,108.1,25z"/>
		<path fill="#0E0E0E" d="M132.5,21.9c1.1,0,2.1,0.1,3.1,0.3c1,0.2,1.8,0.6,2.6,1v3.1c-1-0.4-1.9-0.7-2.7-0.8
			c-0.8-0.2-1.7-0.3-2.6-0.3c-0.9,0-1.8,0.2-2.7,0.4c-0.9,0.3-1.7,0.8-2.4,1.5s-1.3,1.6-1.7,2.7c-0.4,1.1-0.6,2.5-0.6,4.2
			c0,1.2,0.2,2.3,0.5,3.4s0.8,1.9,1.4,2.7c0.6,0.8,1.4,1.3,2.4,1.8c1,0.4,2.1,0.6,3.3,0.6c0.9,0,1.8-0.1,2.8-0.3
			c0.9-0.2,1.8-0.5,2.7-0.8v3.1c-0.3,0.2-0.6,0.3-1.1,0.5c-0.4,0.2-0.9,0.3-1.4,0.4c-0.5,0.1-1.1,0.2-1.7,0.3s-1.2,0.1-1.8,0.1
			c-1.5,0-2.9-0.2-4.3-0.7c-1.4-0.5-2.5-1.2-3.5-2.1s-1.8-2.1-2.4-3.6c-0.6-1.4-0.9-3.2-0.9-5.2c0-1.5,0.2-2.8,0.5-4
			c0.3-1.2,0.7-2.2,1.3-3.1c0.5-0.9,1.2-1.7,1.9-2.3s1.5-1.2,2.3-1.6s1.6-0.7,2.5-0.9C130.8,22,131.7,21.9,132.5,21.9z"/>
		<path fill="#0E0E0E" d="M163.4,33.7c0,1.8-0.2,3.4-0.8,4.8s-1.2,2.7-2.1,3.7c-0.9,1-2,1.8-3.4,2.4c-1.3,0.6-2.8,0.8-4.4,0.8
			c-1.7,0-3.2-0.3-4.5-0.8c-1.3-0.6-2.4-1.4-3.4-2.4c-0.9-1-1.6-2.3-2.1-3.7c-0.5-1.4-0.7-3.1-0.7-4.8c0-1.8,0.2-3.4,0.8-4.9
			c0.5-1.4,1.2-2.7,2.1-3.7c0.9-1,2.1-1.8,3.4-2.4c1.3-0.6,2.8-0.8,4.4-0.8c1.7,0,3.2,0.3,4.5,0.8c1.3,0.6,2.5,1.4,3.4,2.4
			c0.9,1,1.6,2.3,2.1,3.7C163.2,30.3,163.4,32,163.4,33.7z M159.6,33.7c0-1.4-0.2-2.6-0.5-3.7c-0.3-1.1-0.8-2-1.4-2.7
			c-0.6-0.8-1.3-1.3-2.2-1.7c-0.8-0.4-1.8-0.6-2.7-0.6s-1.9,0.2-2.7,0.6c-0.8,0.4-1.6,1-2.2,1.7s-1.1,1.7-1.4,2.7
			c-0.3,1.1-0.5,2.3-0.5,3.7c0,1.4,0.2,2.6,0.5,3.7c0.3,1.1,0.8,2,1.4,2.7c0.6,0.7,1.3,1.3,2.2,1.7s1.8,0.6,2.7,0.6s1.9-0.2,2.7-0.6
			c0.8-0.4,1.5-1,2.2-1.7c0.6-0.7,1.1-1.6,1.4-2.7C159.4,36.3,159.6,35.1,159.6,33.7z"/>
		<path fill="#0E0E0E" d="M180.6,25.4h-0.3c-0.9,0-1.7,0.1-2.6,0.2s-1.6,0.4-2.4,0.7c-0.7,0.3-1.4,0.7-2,1.2c-0.6,0.5-1.1,1-1.5,1.7
			V45h-3.7V22.4h2.8l0.7,3.6h0.1c0.4-0.6,0.8-1.1,1.3-1.6c0.5-0.5,1.1-0.9,1.8-1.3c0.7-0.4,1.4-0.7,2.2-0.9c0.8-0.2,1.6-0.3,2.5-0.3
			c0.2,0,0.3,0,0.5,0c0.2,0,0.3,0,0.4,0L180.6,25.4L180.6,25.4z"/>
		<path fill="#0E0E0E" d="M182.5,34c0-1.6,0.2-2.9,0.5-4.2c0.3-1.2,0.7-2.3,1.2-3.2c0.5-0.9,1.1-1.6,1.8-2.3
			c0.7-0.6,1.4-1.1,2.1-1.5c0.7-0.4,1.5-0.6,2.2-0.8c0.8-0.2,1.5-0.2,2.1-0.2c1.4,0,2.6,0.2,3.6,0.7c1,0.5,1.9,1.1,2.7,2h0.1V10.7
			h3.7V45h-2.8l-0.8-2.5h-0.1c-0.3,0.4-0.6,0.7-1,1.1c-0.4,0.4-0.8,0.7-1.3,1s-1.1,0.5-1.8,0.7c-0.7,0.2-1.4,0.3-2.3,0.3
			c-1.2,0-2.4-0.2-3.6-0.6c-1.2-0.4-2.2-1.1-3.2-2c-0.9-0.9-1.7-2.1-2.2-3.6C182.8,37.9,182.5,36.1,182.5,34z M186.3,33.9
			c0,1.3,0.1,2.5,0.4,3.5c0.3,1,0.7,1.9,1.3,2.7c0.6,0.7,1.2,1.3,2,1.7c0.8,0.4,1.7,0.6,2.8,0.6c0.8,0,1.5-0.1,2.1-0.3
			c0.6-0.2,1.2-0.5,1.7-0.8c0.5-0.3,0.9-0.6,1.3-1c0.4-0.4,0.6-0.7,0.8-1V27.6c-0.8-0.8-1.6-1.4-2.6-1.9c-1-0.5-2.1-0.7-3.2-0.7
			c-0.7,0-1.4,0.1-2.2,0.4c-0.8,0.3-1.5,0.7-2.1,1.4c-0.7,0.7-1.2,1.6-1.6,2.7S186.3,32.2,186.3,33.9z"/>
		<path fill="#0E0E0E" d="M213.4,45h-3.9V13.3h8.8c1.3,0,2.5,0.1,3.6,0.2c1.1,0.2,2.1,0.4,3.1,0.7c1.9,0.7,3.3,1.7,4.3,3.1
			c1,1.4,1.5,3,1.5,5c0,1.6-0.3,3-1,4.3c-0.6,1.2-1.6,2.3-2.8,3.1c-1.2,0.8-2.7,1.4-4.4,1.9c-1.7,0.4-3.7,0.6-5.9,0.6
			c-1.1,0-2.2,0-3.3-0.1L213.4,45L213.4,45z M213.4,28.4c0.5,0.1,1.1,0.1,1.6,0.1c0.6,0,1.1,0,1.6,0c1.8,0,3.4-0.1,4.6-0.4
			c1.3-0.3,2.3-0.7,3.1-1.2c0.8-0.6,1.4-1.2,1.8-2c0.4-0.8,0.5-1.7,0.5-2.7c0-1.2-0.3-2.2-0.9-3c-0.6-0.8-1.4-1.4-2.5-1.8
			c-0.7-0.2-1.5-0.4-2.3-0.5c-0.9-0.1-1.9-0.2-3.1-0.2h-4.5L213.4,28.4L213.4,28.4z"/>
		<path fill="#0E0E0E" d="M247.5,25.4h-0.3c-0.9,0-1.7,0.1-2.6,0.2c-0.8,0.2-1.6,0.4-2.4,0.7c-0.7,0.3-1.4,0.7-2,1.2
			c-0.6,0.5-1.1,1-1.5,1.7V45h-3.7V22.4h2.8l0.7,3.6h0.1c0.4-0.6,0.8-1.1,1.3-1.6c0.5-0.5,1.1-0.9,1.8-1.3c0.7-0.4,1.4-0.7,2.2-0.9
			c0.8-0.2,1.6-0.3,2.5-0.3c0.2,0,0.3,0,0.5,0c0.2,0,0.3,0,0.4,0L247.5,25.4L247.5,25.4z"/>
		<path fill="#0E0E0E" d="M261.4,42.4c1.2,0,2.3-0.1,3.3-0.3c1-0.2,2-0.5,3-0.8v3.1c-0.8,0.4-1.8,0.7-3,0.9
			c-1.2,0.2-2.5,0.3-3.8,0.3c-1.6,0-3.1-0.2-4.5-0.6c-1.4-0.4-2.6-1.1-3.7-2c-1-0.9-1.8-2.1-2.4-3.6c-0.6-1.5-0.9-3.3-0.9-5.3
			c0-2.1,0.3-3.8,0.8-5.3c0.6-1.5,1.3-2.8,2.3-3.8c0.9-1,2-1.8,3.3-2.3c1.2-0.5,2.5-0.8,3.9-0.8c1.3,0,2.4,0.2,3.5,0.6
			c1.1,0.4,2.1,1.1,2.9,2s1.4,2.1,1.9,3.5c0.5,1.4,0.7,3.1,0.7,5.1c0,0.2,0,0.4,0,0.5s0,0.4,0,0.9H253c0,1.4,0.2,2.7,0.6,3.7
			c0.4,1,1,1.8,1.8,2.4c0.8,0.6,1.6,1.1,2.6,1.4C259.1,42.2,260.2,42.4,261.4,42.4z M259.4,25c-0.8,0-1.6,0.2-2.4,0.5
			c-0.7,0.3-1.4,0.8-1.9,1.4c-0.5,0.6-1,1.2-1.3,2c-0.3,0.8-0.5,1.6-0.6,2.5h11.5c0-0.9-0.1-1.7-0.4-2.5s-0.6-1.4-1-2
			c-0.4-0.6-1-1-1.7-1.3C261.1,25.2,260.3,25,259.4,25z"/>
		<path fill="#0E0E0E" d="M276.8,28.4c0,0.6,0.1,1.1,0.4,1.5c0.3,0.4,0.6,0.7,1,1c0.4,0.2,1,0.4,1.5,0.6c0.6,0.2,1.2,0.3,1.8,0.4
			c0.8,0.2,1.6,0.4,2.4,0.6c0.8,0.2,1.5,0.6,2.1,1c0.6,0.5,1.2,1.1,1.6,1.9c0.4,0.8,0.6,1.8,0.6,3c0,1.1-0.2,2.1-0.7,3
			c-0.4,0.9-1.1,1.6-1.9,2.2c-0.8,0.6-1.8,1-2.9,1.4c-1.1,0.3-2.4,0.5-3.7,0.5c-0.8,0-1.6,0-2.2-0.1c-0.7-0.1-1.3-0.2-1.8-0.3
			c-0.5-0.1-1-0.3-1.3-0.4c-0.4-0.1-0.7-0.3-0.9-0.4v-3.1c0.9,0.4,1.8,0.7,2.8,0.9c0.9,0.2,1.9,0.3,3,0.3c0.9,0,1.6-0.1,2.3-0.2
			c0.7-0.2,1.3-0.4,1.8-0.7s0.9-0.7,1.2-1.2c0.3-0.5,0.4-1,0.4-1.6c0-0.6-0.1-1.2-0.4-1.6c-0.2-0.4-0.6-0.8-1-1
			c-0.4-0.3-0.9-0.5-1.4-0.7c-0.6-0.2-1.1-0.3-1.7-0.5c-0.8-0.2-1.6-0.4-2.4-0.6c-0.8-0.2-1.6-0.6-2.2-1c-0.7-0.4-1.2-1-1.6-1.7
			s-0.6-1.7-0.6-2.8c0-1.2,0.2-2.2,0.6-3.1c0.4-0.9,1-1.6,1.7-2.2s1.6-1,2.5-1.3c1-0.3,2-0.4,3.1-0.4c1.2,0,2.4,0.1,3.5,0.4
			c1.1,0.2,2,0.5,2.9,0.9v3.1c-0.9-0.4-1.9-0.7-2.8-0.9c-0.9-0.2-1.9-0.4-2.9-0.4c-0.8,0-1.6,0.1-2.2,0.3c-0.6,0.2-1.1,0.4-1.5,0.7
			c-0.4,0.3-0.7,0.7-0.8,1.1C276.8,27.5,276.8,27.9,276.8,28.4z"/>
		<path fill="#0E0E0E" d="M295.6,28.4c0,0.6,0.1,1.1,0.4,1.5c0.3,0.4,0.6,0.7,1,1c0.4,0.2,1,0.4,1.5,0.6c0.6,0.2,1.2,0.3,1.8,0.4
			c0.8,0.2,1.6,0.4,2.4,0.6c0.8,0.2,1.5,0.6,2.1,1c0.6,0.5,1.2,1.1,1.6,1.9c0.4,0.8,0.6,1.8,0.6,3c0,1.1-0.2,2.1-0.7,3
			c-0.4,0.9-1.1,1.6-1.9,2.2c-0.8,0.6-1.8,1-2.9,1.4c-1.1,0.3-2.4,0.5-3.7,0.5c-0.8,0-1.6,0-2.2-0.1c-0.7-0.1-1.3-0.2-1.8-0.3
			c-0.5-0.1-1-0.3-1.3-0.4c-0.4-0.1-0.7-0.3-0.9-0.4v-3.1c0.9,0.4,1.8,0.7,2.8,0.9c0.9,0.2,1.9,0.3,3,0.3c0.9,0,1.6-0.1,2.3-0.2
			c0.7-0.2,1.3-0.4,1.8-0.7s0.9-0.7,1.2-1.2c0.3-0.5,0.4-1,0.4-1.6c0-0.6-0.1-1.2-0.4-1.6c-0.2-0.4-0.6-0.8-1-1
			c-0.4-0.3-0.9-0.5-1.4-0.7c-0.6-0.2-1.1-0.3-1.7-0.5c-0.8-0.2-1.6-0.4-2.4-0.6c-0.8-0.2-1.6-0.6-2.2-1c-0.7-0.4-1.2-1-1.6-1.7
			s-0.6-1.7-0.6-2.8c0-1.2,0.2-2.2,0.6-3.1c0.4-0.9,1-1.6,1.7-2.2s1.6-1,2.5-1.3c1-0.3,2-0.4,3.1-0.4c1.2,0,2.4,0.1,3.5,0.4
			c1.1,0.2,2,0.5,2.9,0.9v3.1c-0.9-0.4-1.9-0.7-2.8-0.9c-0.9-0.2-1.9-0.4-2.9-0.4c-0.8,0-1.6,0.1-2.2,0.3c-0.6,0.2-1.1,0.4-1.5,0.7
			c-0.4,0.3-0.7,0.7-0.8,1.1C295.7,27.5,295.6,27.9,295.6,28.4z"/>
	</g>
</g>
</svg>
