<?xml version="1.0" encoding="utf-8"?>
<!-- Generator: Adobe Illustrator 18.1.1, SVG Export Plug-In . SVG Version: 6.00 Build 0)  -->
<!DOCTYPE svg PUBLIC "-//W3C//DTD SVG 1.1//EN" "http://www.w3.org/Graphics/SVG/1.1/DTD/svg11.dtd">
<svg version="1.1" id="Lager_1" xmlns="http://www.w3.org/2000/svg" xmlns:xlink="http://www.w3.org/1999/xlink" x="0px" y="0px"
	 viewBox="0 0 2606 509.2" enable-background="new 0 0 2606 509.2" xml:space="preserve">
<g>
	<g>
		<path fill="#F8F7F7" d="M254.6,0C114,0,0,114,0,254.6s114,254.6,254.6,254.6s254.6-114,254.6-254.6S395.2,0,254.6,0z M254.6,489.7
			c-129.8,0-235.1-105.3-235.1-235.1S124.8,19.5,254.6,19.5s235.1,105.3,235.1,235.1S384.5,489.7,254.6,489.7z"/>
		<path fill="#F8F7F7" d="M256.9,161.6c35-29.7,48.2-53.5,52.3-77.6c2.4-23.5,0.5-59.4-37.1-4.1C250,112.5,256.9,161.6,256.9,161.6
			L256.9,161.6z"/>
		<path fill="#F8F7F7" d="M261.4,195.2C261.4,195.3,261.4,195.3,261.4,195.2C261.4,195.3,261.4,195.3,261.4,195.2z"/>
		<path fill="#F8F7F7" d="M271.3,264.5l13.7,97.9C333.1,355.6,334,255.7,271.3,264.5z"/>
		<path fill="#F8F7F7" d="M248.1,334.3c-59.4-33.2-20.8-89.5,10.2-96.1c1-0.1-5.4-37.1-5.4-37.1c-22.7,15.9-51.4,48.2-55.5,75.1
			c-15.1,98,78.3,87.6,78.3,87.6l-13.6-97C209.5,288.7,248.1,334.3,248.1,334.3z"/>
		<path fill="#F8F7F7" d="M318,48.5c3.5,7.1,5.6,18.1,5.9,38.4c0.6,42.5-34.5,85.7-62.3,108.3l5.9,41.8
			c27.2-3.8,64.4,11.6,69.6,48.8c8,57.3-25,85.3-50.3,88.8c0,0.2,0,0.1,0,0.1c6.5,46.4,2.4,80-19.4,95.3
			c113.2-6.6,202.9-100.4,202.9-215.2C470.2,157.6,406.1,75.5,318,48.5z"/>
		<path fill="#F8F7F7" d="M196.7,438.6c4.3-20.1,33.1-30.4,50.2-17.5c17.1,12.9,4.7,41.2-11.5,43.5c-3.4,0.5-5.8,1.9-5.8,4.2
			c6.5,0.8,13.1,1.2,19.8,1.4c3.5-1,7.1-2.4,10.4-4c34.1-18.3,17.5-90.3,17.5-90.3s-40.8,9.1-78.2-23
			c-56.7-54.7-21.4-136.3,38.4-176.9c3.7-2.4,7.2-5.7,10.6-8.2l0,0c-1.7-12.1-6-49.3-0.7-72.6c3.3-14.6,18.4-40.3,32.5-54.6
			c-8.3-1-16.8-1.5-25.4-1.5C135.5,39,39,135.5,39,254.6c0,100.2,68.3,184.3,160.8,208.6C195.7,455.7,195,446.7,196.7,438.6z"/>
		<path d="M261.4,195.2c0.1,0,0.1-0.1,0.2-0.1l-0.1-0.8C261.4,194.3,261.4,195,261.4,195.2z"/>
	</g>
	<g>
		<path fill="#F8F7F7" d="M652.5,270.2v111.4h-32.8V112.5h69.7c11.8,0,21.8,0.4,30,1.3c8.2,0.9,15.8,2.2,22.6,4.1
			c18.8,5.1,33.1,13.8,43,26.1s14.9,27.6,14.9,46c0,10.9-1.7,20.6-5.2,29.2c-3.5,8.6-8.4,16-14.7,22.3c-6.3,6.3-13.8,11.5-22.6,15.5
			c-8.8,4-18.5,7-29.3,8.9v0.8l79.7,115.1h-32.8l-82.9-111.4H652.5z M652.5,142.1v98.6h32.4c10.1,0,18.6-0.3,25.8-1
			c7.1-0.7,13.5-1.9,19.1-3.6c11.4-3.5,20.2-9.1,26.4-16.7c6.2-7.6,9.3-17.6,9.3-30c-0.1-11.5-3.1-20.8-8.9-27.9
			c-5.8-7-13.7-12.1-23.9-15.2c-4.8-1.5-10.6-2.5-17.3-3.2c-6.7-0.7-15.2-1-25.5-1H652.5z"/>
		<path fill="#F8F7F7" d="M934,359.5c10.3,0,19.7-0.8,28.3-2.5c8.5-1.7,17-4.1,25.4-7.1v26c-6.8,3.4-15.3,6-25.3,7.9
			c-10.1,1.9-20.9,2.9-32.4,2.9c-13.7,0-26.5-1.7-38.5-5.2c-12-3.5-22.4-9.1-31.2-16.9c-8.8-7.8-15.7-17.9-20.6-30.5
			c-5-12.5-7.5-27.7-7.5-45.4c0-17.4,2.4-32.6,7.2-45.4c4.8-12.8,11.2-23.5,19.3-32.1c8-8.6,17.3-15,27.7-19.3
			c10.4-4.3,21.3-6.4,32.7-6.4c10.7,0,20.7,1.8,30,5.3c9.3,3.6,17.4,9.2,24.2,16.8c6.8,7.6,12.2,17.5,16.2,29.6s5.9,26.6,5.9,43.5
			c0,1.6,0,3,0,4.1c0,1.1-0.1,3.7-0.2,7.7h-132c0,12.2,1.8,22.6,5.5,31.1c3.7,8.5,8.7,15.4,15.1,20.7c6.4,5.3,13.8,9.2,22.4,11.6
			C914.8,358.3,924.1,359.5,934,359.5z M917.5,212.3c-7.2,0-13.9,1.4-20.1,4.2s-11.6,6.6-16.2,11.5c-4.6,4.8-8.4,10.5-11.2,17
			c-2.9,6.5-4.6,13.4-5.3,20.8h97.8c0-7.5-1-14.5-3-21c-2-6.5-4.9-12.2-8.7-17s-8.5-8.6-14.1-11.4
			C931.3,213.7,924.9,212.3,917.5,212.3z"/>
		<path fill="#F8F7F7" d="M1124.6,185.5c9.3,0,18.1,1,26.6,2.9c8.4,1.9,15.7,4.7,21.7,8.1v26c-8.4-3.2-16.2-5.6-23.3-7.2
			c-7.1-1.6-14.4-2.4-21.7-2.4c-7.8,0-15.5,1.3-23.1,3.8c-7.6,2.5-14.5,6.7-20.5,12.6s-10.9,13.5-14.6,23.1
			c-3.7,9.6-5.5,21.5-5.5,35.7c0,10.3,1.4,19.9,4.1,28.6c2.7,8.7,6.8,16.3,12.3,22.6c5.4,6.4,12.2,11.3,20.4,14.9
			c8.2,3.6,17.6,5.3,28.4,5.3c7.8,0,15.6-0.8,23.5-2.5c7.9-1.7,15.6-4.1,23.1-7.1v26c-2.3,1.3-5.3,2.7-9,4
			c-3.7,1.3-7.7,2.5-12.2,3.5s-9.1,1.8-14.1,2.4c-5,0.6-9.9,0.9-14.9,0.9c-12.9,0-25-1.9-36.5-5.8s-21.5-9.9-30.1-17.9
			c-8.6-8-15.4-18.2-20.3-30.6c-5-12.3-7.4-27-7.4-43.9c0-12.6,1.3-23.9,3.9-34s6.2-18.9,10.8-26.6c4.6-7.6,9.9-14.1,16-19.5
			c6.1-5.4,12.6-9.8,19.5-13.2c6.9-3.4,14-5.9,21.4-7.4C1110.4,186.3,1117.6,185.5,1124.6,185.5z"/>
		<path fill="#F8F7F7" d="M1386.9,286.3c0,15-2.1,28.7-6.4,41c-4.3,12.3-10.4,22.9-18.2,31.7c-7.8,8.8-17.3,15.6-28.5,20.4
			c-11.1,4.8-23.6,7.2-37.4,7.2c-14.2,0-26.9-2.4-38.1-7.2c-11.2-4.8-20.7-11.6-28.6-20.4c-7.8-8.8-13.8-19.3-18-31.7
			c-4.2-12.3-6.2-26-6.2-41c0-15.2,2.1-28.9,6.4-41.2c4.3-12.3,10.4-22.9,18.2-31.8s17.4-15.7,28.6-20.5c11.2-4.8,23.7-7.2,37.5-7.2
			c14.1,0,26.8,2.4,38,7.2s20.8,11.7,28.6,20.5c7.8,8.9,13.7,19.4,17.9,31.8C1384.9,257.4,1386.9,271.2,1386.9,286.3z M1354.4,286.3
			c0-11.8-1.4-22.3-4.3-31.5c-2.9-9.2-6.9-17-12.1-23.3c-5.2-6.4-11.3-11.2-18.4-14.5c-7.1-3.3-14.9-4.9-23.3-4.9
			s-16.2,1.6-23.3,4.9c-7.1,3.3-13.2,8.1-18.4,14.5c-5.2,6.4-9.2,14.2-12.1,23.3c-2.9,9.2-4.3,19.7-4.3,31.5
			c0,11.7,1.4,22.1,4.3,31.3c2.9,9.2,6.9,16.9,12.2,23.2c5.2,6.3,11.4,11.1,18.5,14.4c7.1,3.3,14.9,4.9,23.3,4.9s16.2-1.6,23.2-4.9
			c7-3.3,13.1-8.1,18.3-14.4c5.2-6.3,9.2-14,12.1-23.2C1352.9,308.4,1354.4,298,1354.4,286.3z"/>
		<path fill="#F8F7F7" d="M1532.8,215.9h-2.4c-7.4,0-14.6,0.7-21.7,2c-7.1,1.3-13.8,3.4-20,6.1c-6.2,2.8-11.9,6.1-16.9,10.2
			s-9.2,8.8-12.6,14.3v133.2H1428V190.5h24.1l6,30.4h0.6c3.1-5,6.9-9.6,11.4-13.9c4.5-4.3,9.6-8,15.2-11.3s11.8-5.7,18.5-7.5
			c6.7-1.8,13.7-2.7,21.1-2.7c1.3,0,2.7,0,4.1,0.1c1.4,0.1,2.6,0.2,3.7,0.3V215.9z"/>
		<path fill="#F8F7F7" d="M1548.7,288.5c0-13.3,1.3-25,3.9-35.3s6.1-19.2,10.4-26.9c4.3-7.6,9.3-14,15.1-19.2
			c5.8-5.2,11.7-9.4,17.9-12.6c6.2-3.2,12.4-5.5,18.8-6.9c6.4-1.4,12.4-2.1,18-2.1c11.7,0,21.8,1.9,30.4,5.8
			c8.6,3.9,16.3,9.6,23.1,17.1h0.6V90.4h31.2v291.3h-23.5l-6.4-21.3h-0.8c-2.4,3.1-5.2,6.2-8.4,9.4c-3.2,3.2-7,6-11.4,8.5
			c-4.4,2.5-9.4,4.6-15.1,6.1c-5.7,1.5-12.3,2.3-19.8,2.3c-10.5,0-20.7-1.8-30.8-5.3c-10.1-3.6-19-9.3-26.9-17.1s-14.2-18-19-30.4
			C1551.2,321.5,1548.7,306.4,1548.7,288.5z M1581.3,288.1c0,11,1.2,21,3.7,29.9c2.5,8.9,6.1,16.5,10.8,22.7
			c4.7,6.2,10.5,11,17.3,14.4c6.8,3.4,14.7,5,23.5,5c6.6,0,12.5-0.9,17.9-2.6c5.4-1.7,10.2-4,14.4-6.6c4.2-2.7,7.8-5.5,10.9-8.5
			s5.4-5.8,7.1-8.3V234c-6.4-6.6-13.9-11.8-22.3-15.8c-8.4-4-17.6-5.9-27.4-5.9c-5.9,0-12.1,1.1-18.6,3.3c-6.5,2.2-12.5,6.2-18.1,12
			c-5.6,5.8-10.2,13.5-13.8,23.2C1583.1,260.5,1581.3,273,1581.3,288.1z"/>
		<path fill="#F8F7F7" d="M1811.1,381.7h-32.8V112.5h74.6c11.1,0,21.4,0.7,30.8,2c9.4,1.3,18.1,3.4,26,6.2
			c16.1,5.8,28.3,14.4,36.6,25.9s12.5,25.6,12.5,42.3c0,13.7-2.7,25.7-8.1,36.1c-5.4,10.4-13.3,19.1-23.6,26.1
			c-10.3,7-22.9,12.2-37.7,15.8c-14.8,3.6-31.6,5.3-50.3,5.3c-9,0-18.3-0.4-27.9-1.2V381.7z M1811.1,241c4.4,0.5,9.1,0.9,13.9,1.2
			c4.8,0.3,9.4,0.4,13.7,0.4c15.4,0,28.6-1.2,39.4-3.6s19.7-5.9,26.6-10.6s11.8-10.3,14.9-16.9c3.1-6.6,4.6-14.2,4.6-22.6
			c0-10.5-2.5-19-7.5-25.8c-5-6.7-12.2-11.8-21.4-15.3c-5.8-2.1-12.4-3.7-19.9-4.5c-7.5-0.9-16.2-1.3-26.2-1.3h-38V241z"/>
		<path fill="#F8F7F7" d="M2100.5,215.9h-2.4c-7.4,0-14.6,0.7-21.7,2c-7.1,1.3-13.8,3.4-20,6.1c-6.2,2.8-11.9,6.1-16.9,10.2
			s-9.2,8.8-12.6,14.3v133.2h-31.2V190.5h24.1l6,30.4h0.6c3.1-5,6.9-9.6,11.4-13.9c4.5-4.3,9.6-8,15.2-11.3s11.8-5.7,18.5-7.5
			c6.7-1.8,13.7-2.7,21.1-2.7c1.3,0,2.7,0,4.1,0.1c1.4,0.1,2.6,0.2,3.7,0.3V215.9z"/>
		<path fill="#F8F7F7" d="M2218.2,359.5c10.3,0,19.7-0.8,28.3-2.5c8.5-1.7,17-4.1,25.4-7.1v26c-6.8,3.4-15.3,6-25.3,7.9
			c-10.1,1.9-20.9,2.9-32.4,2.9c-13.7,0-26.5-1.7-38.5-5.2c-12-3.5-22.4-9.1-31.2-16.9c-8.8-7.8-15.7-17.9-20.6-30.5
			c-5-12.5-7.5-27.7-7.5-45.4c0-17.4,2.4-32.6,7.2-45.4c4.8-12.8,11.2-23.5,19.3-32.1c8-8.6,17.3-15,27.7-19.3
			c10.4-4.3,21.3-6.4,32.7-6.4c10.7,0,20.7,1.8,30,5.3c9.3,3.6,17.4,9.2,24.2,16.8c6.8,7.6,12.2,17.5,16.2,29.6s5.9,26.6,5.9,43.5
			c0,1.6,0,3,0,4.1c0,1.1-0.1,3.7-0.2,7.7h-132c0,12.2,1.8,22.6,5.5,31.1c3.7,8.5,8.7,15.4,15.1,20.7c6.4,5.3,13.8,9.2,22.4,11.6
			C2199.1,358.3,2208.3,359.5,2218.2,359.5z M2201.8,212.3c-7.2,0-13.9,1.4-20.1,4.2s-11.6,6.6-16.2,11.5c-4.6,4.8-8.4,10.5-11.2,17
			c-2.9,6.5-4.6,13.4-5.3,20.8h97.8c0-7.5-1-14.5-3-21c-2-6.5-4.9-12.2-8.7-17s-8.5-8.6-14.1-11.4
			C2215.6,213.7,2209.1,212.3,2201.8,212.3z"/>
		<path fill="#F8F7F7" d="M2348.7,241.4c0,5.2,1.1,9.5,3.3,12.9c2.2,3.4,5.2,6.1,8.9,8.1c3.7,2.1,8.1,3.8,13,5.1
			c4.9,1.3,10,2.5,15.2,3.6c7.2,1.6,14,3.4,20.5,5.3c6.4,1.9,12.4,4.9,17.8,8.8c5.4,3.9,9.8,9.2,13.2,15.8s5,15.3,5,25.8
			c0,9.7-1.9,18.2-5.6,25.7c-3.8,7.4-9.1,13.7-15.9,18.7s-15,8.9-24.5,11.5c-9.5,2.6-20,3.9-31.4,3.9c-7,0-13.3-0.4-19-1.1
			c-5.7-0.7-10.7-1.7-15.1-2.8c-4.4-1.1-8.1-2.3-11.2-3.5c-3.1-1.2-5.6-2.3-7.6-3.4v-26.2c7.9,3.2,15.7,5.8,23.5,7.6
			c7.8,1.9,16.3,2.8,25.7,2.8c7.4,0,14-0.7,19.9-2c5.9-1.3,11-3.3,15.3-5.9s7.6-5.9,9.9-9.9c2.3-4,3.5-8.6,3.5-13.8
			c0-5.4-1.1-9.8-3.2-13.3c-2.1-3.5-4.9-6.4-8.5-8.7c-3.6-2.3-7.7-4.2-12.3-5.6c-4.7-1.5-9.6-2.8-14.7-4c-6.7-1.5-13.5-3.2-20.4-5.2
			s-13.2-4.8-18.9-8.4s-10.2-8.5-13.7-14.8s-5.2-14.2-5.2-24c0-10.1,1.8-18.8,5.4-26.2c3.6-7.4,8.5-13.5,14.7-18.3
			c6.2-4.8,13.3-8.4,21.5-10.9c8.2-2.4,16.8-3.6,26-3.6c10.6,0,20.4,1,29.5,3s17.3,4.6,24.6,7.6v26.6c-7.9-3.1-15.8-5.6-23.9-7.5
			c-8-1.9-16.3-3-24.8-3.1c-7.2,0-13.3,0.7-18.5,2.2c-5.1,1.5-9.3,3.5-12.6,6.1c-3.3,2.6-5.7,5.7-7.2,9.3
			C2349.4,233.2,2348.7,237.2,2348.7,241.4z"/>
		<path fill="#F8F7F7" d="M2509,241.4c0,5.2,1.1,9.5,3.3,12.9c2.2,3.4,5.2,6.1,8.9,8.1c3.7,2.1,8.1,3.8,13,5.1
			c4.9,1.3,10,2.5,15.2,3.6c7.2,1.6,14,3.4,20.5,5.3c6.4,1.9,12.4,4.9,17.8,8.8c5.4,3.9,9.8,9.2,13.2,15.8s5,15.3,5,25.8
			c0,9.7-1.9,18.2-5.6,25.7c-3.8,7.4-9.1,13.7-15.9,18.7s-15,8.9-24.5,11.5c-9.5,2.6-20,3.9-31.4,3.9c-7,0-13.3-0.4-19-1.1
			c-5.7-0.7-10.7-1.7-15.1-2.8c-4.4-1.1-8.1-2.3-11.2-3.5c-3.1-1.2-5.6-2.3-7.6-3.4v-26.2c7.9,3.2,15.7,5.8,23.5,7.6
			c7.8,1.9,16.3,2.8,25.7,2.8c7.4,0,14-0.7,19.9-2c5.9-1.3,11-3.3,15.3-5.9s7.6-5.9,9.9-9.9c2.3-4,3.5-8.6,3.5-13.8
			c0-5.4-1.1-9.8-3.2-13.3c-2.1-3.5-4.9-6.4-8.5-8.7c-3.6-2.3-7.7-4.2-12.3-5.6c-4.7-1.5-9.6-2.8-14.7-4c-6.7-1.5-13.5-3.2-20.4-5.2
			s-13.2-4.8-18.9-8.4s-10.2-8.5-13.7-14.8s-5.2-14.2-5.2-24c0-10.1,1.8-18.8,5.4-26.2c3.6-7.4,8.5-13.5,14.7-18.3
			c6.2-4.8,13.3-8.4,21.5-10.9c8.2-2.4,16.8-3.6,26-3.6c10.6,0,20.4,1,29.5,3s17.3,4.6,24.6,7.6v26.6c-7.9-3.1-15.8-5.6-23.9-7.5
			c-8-1.9-16.3-3-24.8-3.1c-7.2,0-13.3,0.7-18.5,2.2c-5.1,1.5-9.3,3.5-12.6,6.1c-3.3,2.6-5.7,5.7-7.2,9.3
			C2509.8,233.2,2509,237.2,2509,241.4z"/>
	</g>
</g>
<g display="none">
	<g display="inline">
		<path fill="#010202" d="M254.6,0C114,0,0,114,0,254.6c0,140.6,114,254.6,254.6,254.6s254.6-114,254.6-254.6
			C509.2,114,395.2,0,254.6,0z M254.6,489.7c-129.8,0-235.1-105.3-235.1-235.1c0-129.8,105.3-235.1,235.1-235.1
			s235.1,105.3,235.1,235.1C489.7,384.5,384.5,489.7,254.6,489.7z"/>
		<path fill="#FFFFFF" d="M229.7,469.2c0.5,3.9,10,3.7,19.8,0.9c-6.7-0.2-13.3-0.6-19.8-1.4C229.7,468.9,229.7,469.1,229.7,469.2z"
			/>
		<path fill="#010202" d="M196.7,438.6c4.3-20.1,33.1-30.4,50.2-17.5c17.1,12.9,4.7,41.2-11.5,43.5c-3.4,0.5-5.8,1.9-5.8,4.2
			c6.5,0.8,13.1,1.2,19.8,1.4c3.5-1,7.1-2.4,10.4-4c34.1-18.3,17.5-90.3,17.5-90.3s-40.8,9.1-78.2-23
			c-56.7-54.7-21.4-136.3,38.4-176.9c3.7-2.4,7.2-5.7,10.6-8.2h0c-1.7-12.1-6-49.3-0.7-72.6c3.3-14.6,18.4-40.3,32.5-54.6
			c-8.3-1-16.8-1.5-25.4-1.5C135.5,39,39,135.5,39,254.6c0,100.2,68.3,184.3,160.8,208.6C195.7,455.7,195,446.7,196.7,438.6z"/>
		<path fill="#010202" d="M256.9,161.6c35-29.7,48.2-53.5,52.3-77.6c2.4-23.5,0.5-59.4-37.1-4.1C250,112.5,256.9,161.6,256.9,161.6
			L256.9,161.6z"/>
		<path fill="#010202" d="M271.3,264.5l13.7,97.9C333.1,355.6,334,255.7,271.3,264.5z"/>
		<path fill="#010202" d="M261.4,195.2C261.4,195.3,261.4,195.3,261.4,195.2C261.4,195.3,261.4,195.3,261.4,195.2z"/>
		<path fill="#010202" d="M318,48.5c3.5,7.1,5.6,18.1,5.9,38.4c0.6,42.5-34.5,85.7-62.3,108.3l5.9,41.8
			c27.2-3.8,64.4,11.6,69.6,48.8c8,57.3-25,85.3-50.3,88.8c0,0.2,0,0.1,0,0.1c6.5,46.4,2.4,80-19.4,95.3
			c113.2-6.6,202.9-100.4,202.9-215.2C470.2,157.6,406.1,75.5,318,48.5z"/>
		<path fill="#010202" d="M248.1,334.3c-59.4-33.2-20.8-89.5,10.2-96.1c1-0.1-5.4-37.1-5.4-37.1c-22.7,15.9-51.4,48.2-55.5,75.1
			c-15.1,98,78.3,87.6,78.3,87.6l-13.6-97C209.5,288.7,248.1,334.3,248.1,334.3z"/>
		<path fill="#FFFFFF" d="M261.4,195.2c0.1,0,0.1-0.1,0.2-0.1l-0.1-0.8C261.4,194.3,261.4,195,261.4,195.2z"/>
	</g>
	<g display="inline">
		<path d="M652.5,270.2v111.4h-32.8V112.5h69.7c11.8,0,21.8,0.4,30,1.3c8.2,0.9,15.8,2.2,22.6,4.1c18.8,5.1,33.1,13.8,43,26.1
			s14.9,27.6,14.9,46c0,10.9-1.7,20.6-5.2,29.2c-3.5,8.6-8.4,16-14.7,22.3c-6.3,6.3-13.8,11.5-22.6,15.5c-8.8,4-18.5,7-29.3,8.9v0.8
			l79.7,115.1h-32.8l-82.9-111.4H652.5z M652.5,142.1v98.6h32.4c10.1,0,18.6-0.3,25.8-1c7.1-0.7,13.5-1.9,19.1-3.6
			c11.4-3.5,20.2-9.1,26.4-16.7c6.2-7.6,9.3-17.6,9.3-30c-0.1-11.5-3.1-20.8-8.9-27.9c-5.8-7-13.7-12.1-23.9-15.2
			c-4.8-1.5-10.6-2.5-17.3-3.2c-6.7-0.7-15.2-1-25.5-1H652.5z"/>
		<path d="M934,359.5c10.3,0,19.7-0.8,28.3-2.5c8.5-1.7,17-4.1,25.4-7.1v26c-6.8,3.4-15.3,6-25.3,7.9c-10.1,1.9-20.9,2.9-32.4,2.9
			c-13.7,0-26.5-1.7-38.5-5.2c-12-3.5-22.4-9.1-31.2-16.9c-8.8-7.8-15.7-17.9-20.6-30.5c-5-12.5-7.5-27.7-7.5-45.4
			c0-17.4,2.4-32.6,7.2-45.4c4.8-12.8,11.2-23.5,19.3-32.1c8-8.6,17.3-15,27.7-19.3c10.4-4.3,21.3-6.4,32.7-6.4
			c10.7,0,20.7,1.8,30,5.3c9.3,3.6,17.4,9.2,24.2,16.8c6.8,7.6,12.2,17.5,16.2,29.6s5.9,26.6,5.9,43.5c0,1.6,0,3,0,4.1
			c0,1.1-0.1,3.7-0.2,7.7h-132c0,12.2,1.8,22.6,5.5,31.1c3.7,8.5,8.7,15.4,15.1,20.7c6.4,5.3,13.8,9.2,22.4,11.6
			C914.8,358.3,924.1,359.5,934,359.5z M917.5,212.3c-7.2,0-13.9,1.4-20.1,4.2s-11.6,6.6-16.2,11.5c-4.6,4.8-8.4,10.5-11.2,17
			c-2.9,6.5-4.6,13.4-5.3,20.8h97.8c0-7.5-1-14.5-3-21c-2-6.5-4.9-12.2-8.7-17s-8.5-8.6-14.1-11.4
			C931.3,213.7,924.9,212.3,917.5,212.3z"/>
		<path d="M1124.6,185.5c9.3,0,18.1,1,26.6,2.9c8.4,1.9,15.7,4.7,21.7,8.1v26c-8.4-3.2-16.2-5.6-23.3-7.2
			c-7.1-1.6-14.4-2.4-21.7-2.4c-7.8,0-15.5,1.3-23.1,3.8c-7.6,2.5-14.5,6.7-20.5,12.6s-10.9,13.5-14.6,23.1
			c-3.7,9.6-5.5,21.5-5.5,35.7c0,10.3,1.4,19.9,4.1,28.6c2.7,8.7,6.8,16.3,12.3,22.6c5.4,6.4,12.2,11.3,20.4,14.9
			c8.2,3.6,17.6,5.3,28.4,5.3c7.8,0,15.6-0.8,23.5-2.5c7.9-1.7,15.6-4.1,23.1-7.1v26c-2.3,1.3-5.3,2.7-9,4
			c-3.7,1.3-7.7,2.5-12.2,3.5s-9.1,1.8-14.1,2.4c-5,0.6-9.9,0.9-14.9,0.9c-12.9,0-25-1.9-36.5-5.8s-21.5-9.9-30.1-17.9
			c-8.6-8-15.4-18.2-20.3-30.6c-5-12.3-7.4-27-7.4-43.9c0-12.6,1.3-23.9,3.9-34s6.2-18.9,10.8-26.6c4.6-7.6,9.9-14.1,16-19.5
			c6.1-5.4,12.6-9.8,19.5-13.2c6.9-3.4,14-5.9,21.4-7.4C1110.4,186.3,1117.6,185.5,1124.6,185.5z"/>
		<path d="M1386.9,286.3c0,15-2.1,28.7-6.4,41c-4.3,12.3-10.4,22.9-18.2,31.7c-7.8,8.8-17.3,15.6-28.5,20.4
			c-11.1,4.8-23.6,7.2-37.4,7.2c-14.2,0-26.9-2.4-38.1-7.2c-11.2-4.8-20.7-11.6-28.6-20.4c-7.8-8.8-13.8-19.3-18-31.7
			c-4.2-12.3-6.2-26-6.2-41c0-15.2,2.1-28.9,6.4-41.2c4.3-12.3,10.4-22.9,18.2-31.8s17.4-15.7,28.6-20.5c11.2-4.8,23.7-7.2,37.5-7.2
			c14.1,0,26.8,2.4,38,7.2s20.8,11.7,28.6,20.5c7.8,8.9,13.7,19.4,17.9,31.8C1384.9,257.4,1386.9,271.2,1386.9,286.3z M1354.4,286.3
			c0-11.8-1.4-22.3-4.3-31.5c-2.9-9.2-6.9-17-12.1-23.3c-5.2-6.4-11.3-11.2-18.4-14.5c-7.1-3.3-14.9-4.9-23.3-4.9
			s-16.2,1.6-23.3,4.9c-7.1,3.3-13.2,8.1-18.4,14.5c-5.2,6.4-9.2,14.2-12.1,23.3c-2.9,9.2-4.3,19.7-4.3,31.5
			c0,11.7,1.4,22.1,4.3,31.3c2.9,9.2,6.9,16.9,12.2,23.2c5.2,6.3,11.4,11.1,18.5,14.4c7.1,3.3,14.9,4.9,23.3,4.9s16.2-1.6,23.2-4.9
			c7-3.3,13.1-8.1,18.3-14.4c5.2-6.3,9.2-14,12.1-23.2C1352.9,308.4,1354.4,298,1354.4,286.3z"/>
		<path d="M1532.8,215.9h-2.4c-7.4,0-14.6,0.7-21.7,2c-7.1,1.3-13.8,3.4-20,6.1c-6.2,2.8-11.9,6.1-16.9,10.2s-9.2,8.8-12.6,14.3
			v133.2H1428V190.5h24.1l6,30.4h0.6c3.1-5,6.9-9.6,11.4-13.9c4.5-4.3,9.6-8,15.2-11.3s11.8-5.7,18.5-7.5c6.7-1.8,13.7-2.7,21.1-2.7
			c1.3,0,2.7,0,4.1,0.1c1.4,0.1,2.6,0.2,3.7,0.3V215.9z"/>
		<path d="M1548.7,288.5c0-13.3,1.3-25,3.9-35.3s6.1-19.2,10.4-26.9c4.3-7.6,9.3-14,15.1-19.2c5.8-5.2,11.7-9.4,17.9-12.6
			c6.2-3.2,12.4-5.5,18.8-6.9c6.4-1.4,12.4-2.1,18-2.1c11.7,0,21.8,1.9,30.4,5.8c8.6,3.9,16.3,9.6,23.1,17.1h0.6V90.4h31.2v291.3
			h-23.5l-6.4-21.3h-0.8c-2.4,3.1-5.2,6.2-8.4,9.4c-3.2,3.2-7,6-11.4,8.5c-4.4,2.5-9.4,4.6-15.1,6.1c-5.7,1.5-12.3,2.3-19.8,2.3
			c-10.5,0-20.7-1.8-30.8-5.3c-10.1-3.6-19-9.3-26.9-17.1s-14.2-18-19-30.4C1551.2,321.5,1548.7,306.4,1548.7,288.5z M1581.3,288.1
			c0,11,1.2,21,3.7,29.9c2.5,8.9,6.1,16.5,10.8,22.7c4.7,6.2,10.5,11,17.3,14.4c6.8,3.4,14.7,5,23.5,5c6.6,0,12.5-0.9,17.9-2.6
			c5.4-1.7,10.2-4,14.4-6.6c4.2-2.7,7.8-5.5,10.9-8.5s5.4-5.8,7.1-8.3V234c-6.4-6.6-13.9-11.8-22.3-15.8c-8.4-4-17.6-5.9-27.4-5.9
			c-5.9,0-12.1,1.1-18.6,3.3c-6.5,2.2-12.5,6.2-18.1,12c-5.6,5.8-10.2,13.5-13.8,23.2C1583.1,260.5,1581.3,273,1581.3,288.1z"/>
		<path d="M1811.1,381.7h-32.8V112.5h74.6c11.1,0,21.4,0.7,30.8,2c9.4,1.3,18.1,3.4,26,6.2c16.1,5.8,28.3,14.4,36.6,25.9
			s12.5,25.6,12.5,42.3c0,13.7-2.7,25.7-8.1,36.1c-5.4,10.4-13.3,19.1-23.6,26.1c-10.3,7-22.9,12.2-37.7,15.8
			c-14.8,3.6-31.6,5.3-50.3,5.3c-9,0-18.3-0.4-27.9-1.2V381.7z M1811.1,241c4.4,0.5,9.1,0.9,13.9,1.2c4.8,0.3,9.4,0.4,13.7,0.4
			c15.4,0,28.6-1.2,39.4-3.6s19.7-5.9,26.6-10.6s11.8-10.3,14.9-16.9c3.1-6.6,4.6-14.2,4.6-22.6c0-10.5-2.5-19-7.5-25.8
			c-5-6.7-12.2-11.8-21.4-15.3c-5.8-2.1-12.4-3.7-19.9-4.5c-7.5-0.9-16.2-1.3-26.2-1.3h-38V241z"/>
		<path d="M2100.5,215.9h-2.4c-7.4,0-14.6,0.7-21.7,2c-7.1,1.3-13.8,3.4-20,6.1c-6.2,2.8-11.9,6.1-16.9,10.2s-9.2,8.8-12.6,14.3
			v133.2h-31.2V190.5h24.1l6,30.4h0.6c3.1-5,6.9-9.6,11.4-13.9c4.5-4.3,9.6-8,15.2-11.3s11.8-5.7,18.5-7.5
			c6.7-1.8,13.7-2.7,21.1-2.7c1.3,0,2.7,0,4.1,0.1c1.4,0.1,2.6,0.2,3.7,0.3V215.9z"/>
		<path d="M2218.2,359.5c10.3,0,19.7-0.8,28.3-2.5c8.5-1.7,17-4.1,25.4-7.1v26c-6.8,3.4-15.3,6-25.3,7.9
			c-10.1,1.9-20.9,2.9-32.4,2.9c-13.7,0-26.5-1.7-38.5-5.2c-12-3.5-22.4-9.1-31.2-16.9c-8.8-7.8-15.7-17.9-20.6-30.5
			c-5-12.5-7.5-27.7-7.5-45.4c0-17.4,2.4-32.6,7.2-45.4c4.8-12.8,11.2-23.5,19.3-32.1c8-8.6,17.3-15,27.7-19.3
			c10.4-4.3,21.3-6.4,32.7-6.4c10.7,0,20.7,1.8,30,5.3c9.3,3.6,17.4,9.2,24.2,16.8c6.8,7.6,12.2,17.5,16.2,29.6s5.9,26.6,5.9,43.5
			c0,1.6,0,3,0,4.1c0,1.1-0.1,3.7-0.2,7.7h-132c0,12.2,1.8,22.6,5.5,31.1c3.7,8.5,8.7,15.4,15.1,20.7c6.4,5.3,13.8,9.2,22.4,11.6
			C2199.1,358.3,2208.3,359.5,2218.2,359.5z M2201.8,212.3c-7.2,0-13.9,1.4-20.1,4.2s-11.6,6.6-16.2,11.5c-4.6,4.8-8.4,10.5-11.2,17
			c-2.9,6.5-4.6,13.4-5.3,20.8h97.8c0-7.5-1-14.5-3-21c-2-6.5-4.9-12.2-8.7-17s-8.5-8.6-14.1-11.4
			C2215.6,213.7,2209.1,212.3,2201.8,212.3z"/>
		<path d="M2348.7,241.4c0,5.2,1.1,9.5,3.3,12.9c2.2,3.4,5.2,6.1,8.9,8.1c3.7,2.1,8.1,3.8,13,5.1c4.9,1.3,10,2.5,15.2,3.6
			c7.2,1.6,14,3.4,20.5,5.3c6.4,1.9,12.4,4.9,17.8,8.8c5.4,3.9,9.8,9.2,13.2,15.8s5,15.3,5,25.8c0,9.7-1.9,18.2-5.6,25.7
			c-3.8,7.4-9.1,13.7-15.9,18.7s-15,8.9-24.5,11.5c-9.5,2.6-20,3.9-31.4,3.9c-7,0-13.3-0.4-19-1.1c-5.7-0.7-10.7-1.7-15.1-2.8
			c-4.4-1.1-8.1-2.3-11.2-3.5c-3.1-1.2-5.6-2.3-7.6-3.4v-26.2c7.9,3.2,15.7,5.8,23.5,7.6c7.8,1.9,16.3,2.8,25.7,2.8
			c7.4,0,14-0.7,19.9-2c5.9-1.3,11-3.3,15.3-5.9s7.6-5.9,9.9-9.9c2.3-4,3.5-8.6,3.5-13.8c0-5.4-1.1-9.8-3.2-13.3
			c-2.1-3.5-4.9-6.4-8.5-8.7c-3.6-2.3-7.7-4.2-12.3-5.6c-4.7-1.5-9.6-2.8-14.7-4c-6.7-1.5-13.5-3.2-20.4-5.2s-13.2-4.8-18.9-8.4
			s-10.2-8.5-13.7-14.8s-5.2-14.2-5.2-24c0-10.1,1.8-18.8,5.4-26.2c3.6-7.4,8.5-13.5,14.7-18.3c6.2-4.8,13.3-8.4,21.5-10.9
			c8.2-2.4,16.8-3.6,26-3.6c10.6,0,20.4,1,29.5,3s17.3,4.6,24.6,7.6v26.6c-7.9-3.1-15.8-5.6-23.9-7.5c-8-1.9-16.3-3-24.8-3.1
			c-7.2,0-13.3,0.7-18.5,2.2c-5.1,1.5-9.3,3.5-12.6,6.1c-3.3,2.6-5.7,5.7-7.2,9.3C2349.4,233.2,2348.7,237.2,2348.7,241.4z"/>
		<path d="M2509,241.4c0,5.2,1.1,9.5,3.3,12.9c2.2,3.4,5.2,6.1,8.9,8.1c3.7,2.1,8.1,3.8,13,5.1c4.9,1.3,10,2.5,15.2,3.6
			c7.2,1.6,14,3.4,20.5,5.3c6.4,1.9,12.4,4.9,17.8,8.8c5.4,3.9,9.8,9.2,13.2,15.8s5,15.3,5,25.8c0,9.7-1.9,18.2-5.6,25.7
			c-3.8,7.4-9.1,13.7-15.9,18.7s-15,8.9-24.5,11.5c-9.5,2.6-20,3.9-31.4,3.9c-7,0-13.3-0.4-19-1.1c-5.7-0.7-10.7-1.7-15.1-2.8
			c-4.4-1.1-8.1-2.3-11.2-3.5c-3.1-1.2-5.6-2.3-7.6-3.4v-26.2c7.9,3.2,15.7,5.8,23.5,7.6c7.8,1.9,16.3,2.8,25.7,2.8
			c7.4,0,14-0.7,19.9-2c5.9-1.3,11-3.3,15.3-5.9s7.6-5.9,9.9-9.9c2.3-4,3.5-8.6,3.5-13.8c0-5.4-1.1-9.8-3.2-13.3
			c-2.1-3.5-4.9-6.4-8.5-8.7c-3.6-2.3-7.7-4.2-12.3-5.6c-4.7-1.5-9.6-2.8-14.7-4c-6.7-1.5-13.5-3.2-20.4-5.2s-13.2-4.8-18.9-8.4
			s-10.2-8.5-13.7-14.8s-5.2-14.2-5.2-24c0-10.1,1.8-18.8,5.4-26.2c3.6-7.4,8.5-13.5,14.7-18.3c6.2-4.8,13.3-8.4,21.5-10.9
			c8.2-2.4,16.8-3.6,26-3.6c10.6,0,20.4,1,29.5,3s17.3,4.6,24.6,7.6v26.6c-7.9-3.1-15.8-5.6-23.9-7.5c-8-1.9-16.3-3-24.8-3.1
			c-7.2,0-13.3,0.7-18.5,2.2c-5.1,1.5-9.3,3.5-12.6,6.1c-3.3,2.6-5.7,5.7-7.2,9.3C2509.8,233.2,2509,237.2,2509,241.4z"/>
	</g>
</g>
</svg>
